<svg width="400" height="400" viewBox="0 0 400 400" fill="none" xmlns="http://www.w3.org/2000/svg">
<g clip-path="url(#clip0_362_202)">
<path d="M251 57C241.384 55.7718 236.838 62.7942 229 68.5C213.561 79.7396 199.5 107.5 199.5 107.5C199.5 107.5 184.532 132.684 177.5 150C170.365 167.571 166.463 177.768 163.5 196.5C159.041 224.69 168.579 241.003 167 269.5C166.141 285 162 309.5 155.5 341.5C153.002 353.796 146.5 359 145 371.5C143.886 380.784 147.816 387.173 155.5 392.5C163.185 397.827 175.178 397.475 186 392.5C201.25 385.489 203.944 371.504 207 355C209.5 341.5 208.607 332.568 211.5 318.5C213.991 306.389 216.471 299.851 220 288C231.194 250.411 243.615 231.27 254 193.5C263.381 159.381 272 120.5 272 105C272 90.6379 276.445 79.7361 267.5 68.5C262.608 62.3552 258.791 57.995 251 57Z" fill="#BB8062" stroke="#D7A09D" stroke-linecap="round"/>
<path d="M153.5 371C152.225 379.925 151.757 388.631 159 394C166.373 399.465 175 395 183 395C193.497 395 199.009 396.352 209.5 396C218.264 395.706 223.731 395.038 232.5 395C241.461 394.961 246.056 398.05 255 397.5C261.855 397.079 265.252 394.277 272 393C278.568 391.757 283.257 394.422 289 391C294.267 387.862 295.983 384.091 298.5 378.5C300.483 374.095 300.944 371.298 301.5 366.5C301.994 362.233 304.607 359.466 301.5 356.5C298.534 353.669 296.267 356.12 292.5 354.5C289.326 353.135 288.253 353.162 285 352C278 349.5 270.728 350.513 262 349.5C247.768 347.849 239.5 345 227 338.5C220.63 335.188 217.021 332.013 214 325.5C210.302 317.529 213 310.5 214 303C214.882 296.385 214.236 289.375 208 287C203.309 285.213 199.705 287.258 195.5 290C184 297.5 178.129 322.144 167.5 343C161.949 353.892 155 360.5 153.5 371Z" fill="#CB9377" stroke="#D7A09D" stroke-linecap="round"/>
<path d="M150.5 16.5C92.555 3.89914 -0.5 0.5 -0.5 0.5V146.5C-0.5 146.5 56.4329 150.768 92.5 146.5C131.065 141.937 151.761 133.513 189 122.5C221.212 112.974 265.12 128.157 270.5 95C272.3 83.9061 271.265 76.6787 266.5 66.5C261.521 55.8645 256.07 50.5419 246 44.5C228.5 34 188.477 24.7587 150.5 16.5Z" fill="#CB9377" stroke="#D7A09D" stroke-linecap="round"/>
</g>
<defs>
<clipPath id="clip0_362_202">
<rect width="400" height="400" fill="white"/>
</clipPath>
</defs>
</svg>
